<?xml version="1.0" encoding="utf-8"?>
<!-- Generator: Adobe Illustrator 16.0.0, SVG Export Plug-In . SVG Version: 6.00 Build 0)  -->
<!DOCTYPE svg PUBLIC "-//W3C//DTD SVG 1.1//EN" "http://www.w3.org/Graphics/SVG/1.1/DTD/svg11.dtd">
<svg version="1.1" id="Layer_1" xmlns="http://www.w3.org/2000/svg" xmlns:xlink="http://www.w3.org/1999/xlink" x="0px" y="0px"
	 width="100px" height="100px" viewBox="0 0 100 100" enable-background="new 0 0 100 100" xml:space="preserve">
<path fill="#FFFFFF" d="M17.895,34.322c-3.027-0.002-5.48,2.456-5.48,5.48l0.004,22.954c0,3.034,2.455,5.482,5.481,5.481
	c3.029,0,5.482-2.449,5.479-5.481L23.38,39.8C23.379,36.777,20.922,34.319,17.895,34.322 M62.096,13.71l3.824-6.986
	c0.205-0.366,0.072-0.83-0.299-1.037c-0.373-0.197-0.834-0.063-1.031,0.304l-3.863,7.06c-3.254-1.446-6.891-2.258-10.741-2.254
	c-3.84-0.003-7.478,0.805-10.715,2.244L35.402,6c-0.201-0.371-0.664-0.506-1.029-0.304c-0.372,0.201-0.509,0.667-0.303,1.031
	l3.828,6.981c-7.521,3.879-12.601,11.264-12.598,19.743l49.375-0.005C74.676,24.968,69.604,17.598,62.096,13.71 M38.756,24.506
	c-1.138-0.002-2.063-0.927-2.063-2.069c0-1.137,0.925-2.072,2.065-2.072c1.145-0.001,2.07,0.935,2.072,2.072
	C40.83,23.577,39.902,24.504,38.756,24.506 M61.236,24.502c-1.141,0.001-2.07-0.925-2.068-2.07c0.002-1.134,0.926-2.07,2.07-2.074
	c1.135,0.003,2.066,0.939,2.064,2.076C63.307,23.576,62.377,24.502,61.236,24.502 M25.503,35.356l0.008,35.571
	c-0.002,3.235,2.615,5.847,5.849,5.848l3.982,0.001l0.005,12.146c-0.001,3.022,2.457,5.481,5.477,5.481
	c3.029,0,5.482-2.46,5.483-5.485l-0.003-12.143l7.399-0.002l0.004,12.145c-0.002,3.021,2.459,5.484,5.479,5.479
	c3.029,0.002,5.482-2.458,5.482-5.484l-0.002-12.141l3.994-0.004c3.227,0.002,5.852-2.613,5.854-5.849l-0.008-35.572L25.503,35.356z
	 M87.582,39.794c0-3.027-2.455-5.48-5.48-5.48c-3.027-0.001-5.48,2.456-5.48,5.483l0.004,22.953c0,3.03,2.453,5.479,5.482,5.48
	c3.025,0,5.479-2.45,5.479-5.482L87.582,39.794z"/>
</svg>
