<?xml version="1.0" encoding="utf-8"?>
<!-- Generator: Adobe Illustrator 16.0.0, SVG Export Plug-In . SVG Version: 6.00 Build 0)  -->
<!DOCTYPE svg PUBLIC "-//W3C//DTD SVG 1.1//EN" "http://www.w3.org/Graphics/SVG/1.1/DTD/svg11.dtd">
<svg version="1.1" id="Layer_1" xmlns="http://www.w3.org/2000/svg" xmlns:xlink="http://www.w3.org/1999/xlink" x="0px" y="0px"
	 width="100px" height="100px" viewBox="0 0 100 100" enable-background="new 0 0 100 100" xml:space="preserve">
<path d="M19.101,34.91c-2.914-0.001-5.274,2.364-5.274,5.274l0.004,22.093c0,2.92,2.363,5.276,5.275,5.274
	c2.916,0,5.276-2.356,5.273-5.274l0.001-22.095C24.378,37.273,22.014,34.908,19.101,34.91 M61.642,15.072l3.681-6.724
	c0.197-0.353,0.069-0.799-0.287-0.998c-0.359-0.189-0.803-0.061-0.993,0.293l-3.718,6.794c-3.132-1.392-6.632-2.173-10.338-2.169
	c-3.696-0.003-7.197,0.775-10.312,2.16L35.95,7.652c-0.193-0.357-0.639-0.487-0.99-0.293c-0.358,0.194-0.49,0.642-0.292,0.993
	l3.685,6.719c-7.239,3.733-12.128,10.841-12.125,19.002l47.521-0.005C73.749,25.908,68.867,18.814,61.642,15.072 M39.178,25.463
	c-1.095-0.002-1.986-0.892-1.986-1.991c0-1.094,0.891-1.994,1.987-1.994c1.102,0,1.993,0.9,1.995,1.994
	C41.174,24.569,40.281,25.461,39.178,25.463 M60.814,25.459c-1.098,0.001-1.992-0.89-1.99-1.992
	c0.002-1.092,0.891-1.993,1.992-1.997c1.092,0.003,1.989,0.904,1.985,1.998C62.807,24.568,61.912,25.459,60.814,25.459
	 M26.423,35.906l0.008,34.235c-0.002,3.114,2.517,5.628,5.629,5.63h3.833l0.005,11.69c-0.001,2.908,2.365,5.274,5.271,5.274
	c2.915,0,5.276-2.366,5.277-5.278l-0.003-11.687l7.122-0.002l0.004,11.688c-0.002,2.908,2.366,5.278,5.272,5.272
	c2.915,0.002,5.276-2.364,5.276-5.276l-0.002-11.687l3.845-0.004c3.105,0.002,5.632-2.516,5.634-5.629l-0.008-34.236L26.423,35.906z
	 M86.171,40.177c0-2.914-2.362-5.274-5.274-5.274c-2.912-0.001-5.272,2.364-5.272,5.277l0.003,22.092
	c0,2.915,2.361,5.272,5.275,5.274c2.911,0,5.273-2.359,5.273-5.276L86.171,40.177z"/>
</svg>
