<?xml version="1.0" encoding="utf-8"?>
<!-- Generator: Adobe Illustrator 16.0.0, SVG Export Plug-In . SVG Version: 6.00 Build 0)  -->
<!DOCTYPE svg PUBLIC "-//W3C//DTD SVG 1.1//EN" "http://www.w3.org/Graphics/SVG/1.1/DTD/svg11.dtd">
<svg version="1.1" id="Layer_1" xmlns="http://www.w3.org/2000/svg" xmlns:xlink="http://www.w3.org/1999/xlink" x="0px" y="0px"
	 width="100px" height="100px" viewBox="0 0 100 100" enable-background="new 0 0 100 100" xml:space="preserve">
<g>
	<path d="M75.02,50.031c-0.104-10.98,9.025-16.32,9.444-16.569c-5.172-7.505-13.184-8.531-15.993-8.613
		c-6.736-0.705-13.255,4.013-16.688,4.013c-3.494,0-8.771-3.94-14.459-3.829c-7.316,0.115-14.168,4.332-17.925,10.884
		c-7.752,13.36-1.969,33.003,5.457,43.792c3.711,5.299,8.053,11.194,13.735,10.988c5.559-0.222,7.633-3.527,14.344-3.527
		c6.643,0,8.596,3.527,14.389,3.396c5.967-0.087,9.722-5.311,13.304-10.646c4.298-6.064,6.021-12.031,6.086-12.34
		C86.578,67.531,75.132,63.188,75.02,50.031z"/>
	<path d="M64.067,17.748c2.986-3.724,5.036-8.787,4.472-13.925c-4.331,0.189-9.737,2.98-12.857,6.624
		c-2.756,3.208-5.22,8.466-4.584,13.412C55.955,24.215,60.949,21.417,64.067,17.748z"/>
</g>
</svg>
