<?xml version="1.0" encoding="utf-8"?>
<!-- Generator: Adobe Illustrator 16.0.0, SVG Export Plug-In . SVG Version: 6.00 Build 0)  -->
<!DOCTYPE svg PUBLIC "-//W3C//DTD SVG 1.1//EN" "http://www.w3.org/Graphics/SVG/1.1/DTD/svg11.dtd">
<svg version="1.1" id="Layer_1" xmlns="http://www.w3.org/2000/svg" xmlns:xlink="http://www.w3.org/1999/xlink" x="0px" y="0px"
	 width="100px" height="100px" viewBox="0 0 100 100" enable-background="new 0 0 100 100" xml:space="preserve">
<g>
	<path fill="#FFFFFF" d="M75.008,53.682c-0.103-10.975,9.022-16.312,9.441-16.561c-5.169-7.502-13.178-8.527-15.987-8.609
		c-6.731-0.705-13.248,4.011-16.679,4.011c-3.492,0-8.768-3.939-14.453-3.827c-7.313,0.115-14.162,4.33-17.917,10.879
		c-7.748,13.354-1.968,32.989,5.454,43.773c3.71,5.296,8.05,11.19,13.729,10.984c5.557-0.22,7.629-3.527,14.338-3.527
		c6.639,0,8.591,3.527,14.382,3.395c5.964-0.087,9.717-5.307,13.298-10.642c4.295-6.061,6.017-12.025,6.083-12.334
		C86.563,71.175,75.121,66.833,75.008,53.682z"/>
	<path fill="#FFFFFF" d="M64.063,21.414c2.985-3.722,5.033-8.783,4.469-13.919c-4.329,0.189-9.734,2.979-12.853,6.621
		c-2.753,3.207-5.216,8.462-4.581,13.406C55.952,27.878,60.945,25.081,64.063,21.414z"/>
</g>
</svg>
