<?xml version="1.0" encoding="utf-8"?>
<!-- Generator: Adobe Illustrator 16.0.0, SVG Export Plug-In . SVG Version: 6.00 Build 0)  -->
<!DOCTYPE svg PUBLIC "-//W3C//DTD SVG 1.1//EN" "http://www.w3.org/Graphics/SVG/1.1/DTD/svg11.dtd">
<svg version="1.1" id="Layer_1" xmlns="http://www.w3.org/2000/svg" xmlns:xlink="http://www.w3.org/1999/xlink" x="0px" y="0px"
	 width="100px" height="100px" viewBox="0 0 100 100" enable-background="new 0 0 100 100" xml:space="preserve">
<path fill="#FFFFFF" d="M95.346,23.494c-3.264,1.446-6.774,2.423-10.455,2.865c3.759-2.253,6.644-5.819,8-10.066
	c-3.514,2.084-7.406,3.599-11.553,4.413c-3.32-3.534-8.046-5.743-13.28-5.743c-10.046,0-18.196,8.145-18.196,18.195
	c0,1.425,0.163,2.815,0.47,4.145c-15.122-0.759-28.528-8.003-37.503-19.013c-1.565,2.688-2.462,5.812-2.462,9.146
	c0,6.315,3.21,11.885,8.094,15.147c-2.983-0.093-5.791-0.911-8.242-2.274c0,0.076,0,0.152,0,0.228
	c0,8.818,6.268,16.172,14.593,17.846c-1.526,0.41-3.131,0.636-4.792,0.636c-1.172,0-2.315-0.113-3.426-0.328
	c2.319,7.229,9.039,12.492,17,12.641c-6.229,4.882-14.073,7.785-22.598,7.785c-1.467,0-2.919-0.085-4.339-0.255
	c8.053,5.164,17.616,8.177,27.893,8.177c33.466,0,51.769-27.727,51.769-51.767c0-0.788-0.018-1.577-0.053-2.354
	C89.814,30.348,92.905,27.143,95.346,23.494z"/>
</svg>
