<?xml version="1.0" encoding="utf-8"?>
<!-- Generator: Adobe Illustrator 16.0.0, SVG Export Plug-In . SVG Version: 6.00 Build 0)  -->
<!DOCTYPE svg PUBLIC "-//W3C//DTD SVG 1.1//EN" "http://www.w3.org/Graphics/SVG/1.1/DTD/svg11.dtd">
<svg version="1.1" id="Layer_1" xmlns="http://www.w3.org/2000/svg" xmlns:xlink="http://www.w3.org/1999/xlink" x="0px" y="0px"
	 width="50px" height="50px" viewBox="0 0 50 50" enable-background="new 0 0 50 50" xml:space="preserve">
<path fill="#FFFFFF" d="M37.261,17.395c-0.902,0.4-1.872,0.67-2.89,0.792c1.039-0.623,1.837-1.609,2.212-2.783
	c-0.972,0.576-2.048,0.995-3.194,1.22c-0.918-0.977-2.225-1.588-3.672-1.588c-2.778,0-5.031,2.252-5.031,5.031
	c0,0.394,0.045,0.778,0.13,1.146c-4.181-0.21-7.888-2.213-10.369-5.257c-0.433,0.743-0.681,1.607-0.681,2.529
	c0,1.746,0.888,3.286,2.238,4.188c-0.825-0.026-1.601-0.252-2.279-0.629c0,0.021,0,0.042,0,0.063c0,2.438,1.733,4.471,4.035,4.934
	c-0.422,0.114-0.866,0.176-1.325,0.176c-0.324,0-0.64-0.032-0.947-0.091c0.641,1.999,2.499,3.454,4.7,3.495
	c-1.722,1.349-3.891,2.153-6.248,2.153c-0.406,0-0.807-0.024-1.2-0.071c2.227,1.428,4.871,2.261,7.712,2.261
	c9.253,0,14.313-7.666,14.313-14.313c0-0.218-0.004-0.436-0.014-0.651C35.733,19.29,36.587,18.404,37.261,17.395z"/>
</svg>
